:SAMPLES-PER-SECOND 30
:FULLY-SPECIFIED
:DEGREES
417
root  -7.79848 37.0529 9.84514 -171.722 -7.51796 175.829
RightUpLeg  -3.08128 -19.3242 -9.24478
RightLeg  39.6164 -1.24776 -1.37437
RightFoot  -18.3075 2.00142 34.057
RightToes  2.32829e-010 0 -3.6325e-017
Spine  15.2514 4.93681 2.88575
Spine1  20.2838 11.192 -14.9328
HEad  -11.1143 -4.7127 0.741073
LeftShoulder1  0.586046 0.687894 -13.8419
LeftArm  15.5374 17.4523 -56.3674
LeftForeArm  146.316 -74.9701 -140.07
LeftHand  -1.51391 -2.72897 21.6599
RightShoulder  0.608266 0.362319 8.32552
RightArm  5.1404 7.33277 65.7936
RightForeArm  90.964 76.2418 123.735
RightHand  -1.46598 3.1115 -20.0876
LeftUpLeg  -37.0483 -20.1666 6.55804
LeftLeg  12.4961 -21.8808 -2.21002
LeftFoot  7.3989 4.0589 -24.5352
LeftToes  -5.54824e-011 -8.71001e-011 8.3852e-012
418
root  -7.92708 37.1346 10.1915 -174.599 -1.71401 176.782
RightUpLeg  -4.13514 -18.7734 -9.03027
RightLeg  40.714 -1.75902 -1.93155
RightFoot  -19.3504 2.16171 32.0035
RightToes  2.32829e-010 0 -3.6325e-017
Spine  15.7057 4.7349 0.955573
Spine1  19.9633 9.8811 -12.565
HEad  -11.0528 -0.907239 -1.00756
LeftShoulder1  0.571087 0.754789 -13.7999
LeftArm  17.172 16.4591 -54.7497
LeftForeArm  146.358 -75.1684 -139.529
LeftHand  -1.31051 -2.28091 19.9141
RightShoulder  0.663078 0.5444 9.0248
RightArm  9.80533 0.437838 65.764
RightForeArm  94.8319 74.3282 132.424
RightHand  -1.17599 2.24144 -17.9658
LeftUpLeg  -34.3146 -18.4834 8.07253
LeftLeg  13.3209 -18.4135 -2.41546
LeftFoot  6.69393 4.00228 -25.1196
LeftToes  -5.54824e-011 -8.71001e-011 8.3852e-012
419
root  -8.09199 36.982 10.6111 -176.98 3.00471 177.729
RightUpLeg  -4.9373 -18.3829 -8.07377
RightLeg  42.6891 -5.64768 -5.86545
RightFoot  -20.4223 2.01839 26.7589
RightToes  2.32829e-010 0 -3.6325e-017
Spine  16.0273 3.87635 0.138935
Spine1  19.2856 8.00332 -10.4195
HEad  -11.0157 3.09056 -3.01514
LeftShoulder1  0.554837 0.838356 -13.8492
LeftArm  19.0175 14.8276 -53.2567
LeftForeArm  144.065 -75.3281 -138.622
LeftHand  -1.24032 -2.10831 19.2899
RightShoulder  0.748079 0.90458 9.68114
RightArm  13.0035 -4.29974 63.3909
RightForeArm  99.6434 72.2942 139.184
RightHand  -0.828415 1.20515 -14.6021
LeftUpLeg  -33.6728 -18.9119 11.0962
LeftLeg  16.212 -13.7978 -3.80805
LeftFoot  5.03624 3.79365 -26.1715
LeftToes  -5.54824e-011 -8.71001e-011 8.3852e-012
420
root  -8.24935 36.6799 11.049 -179.527 8.51027 178.234
RightUpLeg  -4.93037 -15.3963 -7.45667
RightLeg  44.781 -8.41888 -9.14829
RightFoot  -22.2728 2.10554 23.2622
RightToes  2.32829e-010 0 -3.6325e-017
Spine  16.2817 3.45078 -0.740618
Spine1  19.5993 6.78112 -8.44097
HEad  -11.9375 7.2908 -5.34592
LeftShoulder1  0.539421 0.963415 -14.3044
LeftArm  20.017 12.2532 -52.1718
LeftForeArm  139.353 -75.7126 -136.501
LeftHand  -1.26549 -2.02874 19.8764
RightShoulder  0.821959 1.19267 10.283
RightArm  14.9001 -5.75329 59.8445
RightForeArm  102.701 70.5322 143.601
RightHand  -0.481373 -0.13972 -10.7041
LeftUpLeg  -32.3679 -16.0929 11.7703
LeftLeg  20.2733 -12.2653 -4.70222
LeftFoot  2.85308 3.37604 -26.7922
LeftToes  -5.54824e-011 -8.71001e-011 8.3852e-012
421
root  -8.3457 36.3649 11.5326 177.836 15.9513 178.385
RightUpLeg  -5.03394 -9.1098 -6.96102
RightLeg  46.6051 -8.36065 -9.67144
RightFoot  -24.4743 2.47039 22.6315
RightToes  2.32829e-010 0 -3.6325e-017
Spine  16.1213 4.02355 -1.97574
Spine1  21.3625 6.90223 -6.86843
HEad  -13.9674 11.7452 -8.26115
LeftShoulder1  0.616283 0.696478 -15.0722
LeftArm  18.9587 9.16447 -51.3193
LeftForeArm  133.725 -76.4328 -132.823
LeftHand  -1.19107 -1.75436 19.4042
RightShoulder  0.80211 0.977864 10.7264
RightArm  15.455 -3.6234 56.8432
RightForeArm  101.11 69.8058 144.856
RightHand  -0.327855 -1.24793 -9.17608
LeftUpLeg  -30.2498 -10.8342 12.1148
LeftLeg  24.4257 -11.2621 -5.22366
LeftFoot  0.997313 2.86565 -26.1433
LeftToes  -5.54824e-011 -8.71001e-011 8.3852e-012
422
root  -8.41368 36.1374 12.061 176.232 23.6402 178.918
RightUpLeg  -6.19138 -2.89956 -5.73244
RightLeg  47.8777 -7.16301 -8.74361
RightFoot  -26.0338 2.65938 21.7796
RightToes  2.32829e-010 0 -3.6325e-017
Spine  15.1606 4.81152 -2.53707
Spine1  23.6252 7.51255 -5.70549
HEad  -16.3247 15.8796 -11.4435
LeftShoulder1  0.809207 -0.0832458 -15.764
LeftArm  16.4044 6.00386 -50.7551
LeftForeArm  126.018 -77.6667 -125.66
LeftHand  -1.00606 -1.37992 17.3509
RightShoulder  0.750045 0.649502 10.9073
RightArm  15.0614 0.021713 55.262
RightForeArm  97.7086 70.182 143.759
RightHand  -0.384623 -1.30048 -10.7578
LeftUpLeg  -28.6498 -4.79793 13.5442
LeftLeg  27.893 -10.5532 -5.67208
LeftFoot  0.133908 2.56206 -25.1467
LeftToes  -5.54824e-011 -8.71001e-011 8.3852e-012
423
root  -8.58133 36.0837 12.4645 174.821 27.6612 179.074
RightUpLeg  -6.10151 -1.42057 -5.69777
RightLeg  47.6383 -6.1518 -7.52115
RightFoot  -26.9663 2.5331 19.6308
RightToes  2.32829e-010 0 -3.6325e-017
Spine  15.3421 4.36071 -2.82937
Spine1  24.632 6.5086 -4.29228
HEad  -18.0477 19.0678 -13.8994
LeftShoulder1  0.946889 -0.671174 -15.9034
LeftArm  14.4771 2.8178 -51.1799
LeftForeArm  113.428 -79.0898 -112.894
LeftHand  -0.914986 -1.32884 15.9379
RightShoulder  0.750997 0.694334 10.7208
RightArm  14.1746 2.18206 54.9704
RightForeArm  96.8947 70.8788 142.215
RightHand  -0.539592 -0.488052 -12.79
LeftUpLeg  -27.352 -3.05484 14.4075
LeftLeg  29.2434 -8.96113 -5.06159
LeftFoot  1.01292 2.69541 -24.6151
LeftToes  -5.54824e-011 -8.71001e-011 8.3852e-012
424
root  -8.76587 36.311 12.6967 174.109 29.6955 178.993
RightUpLeg  -5.19164 -1.847 -6.10138
RightLeg  45.239 -5.75451 -6.50619
RightFoot  -27.0106 2.27594 17.7492
RightToes  2.32829e-010 0 -3.6325e-017
Spine  15.5628 3.5355 -3.08809
Spine1  24.678 5.0341 -2.95057
HEad  -18.8391 21.3957 -15.116
LeftShoulder1  0.918056 -0.638735 -15.3248
LeftArm  14.2852 0.0487253 -52.8998
LeftForeArm  98.1002 -79.8071 -98.2309
LeftHand  -0.984078 -1.45371 16.7938
RightShoulder  0.784495 0.930779 10.4916
RightArm  13.032 1.76431 55.4324
RightForeArm  98.6774 71.1303 141.853
RightHand  -0.664472 0.331001 -13.5563
LeftUpLeg  -25.9398 -4.1268 14.8191
LeftLeg  27.773 -6.03147 -3.12598
LeftFoot  3.7708 3.10889 -23.3733
LeftToes  -5.54824e-011 -8.71001e-011 8.3852e-012
425
root  -8.9256 36.8397 12.7717 174.608 31.3813 179.071
RightUpLeg  -4.43048 -1.96471 -6.27989
RightLeg  41.0152 -5.49302 -5.39654
RightFoot  -25.2294 1.89371 16.8443
RightToes  2.32829e-010 0 -3.6325e-017
Spine  14.8785 2.75325 -3.06702
Spine1  24.3594 3.88921 -2.25751
HEad  -19.0566 23.4211 -15.6085
LeftShoulder1  0.838931 -0.422361 -14.4639
LeftArm  15.055 -1.2721 -55.0768
LeftForeArm  88.585 -79.8195 -90.5703
LeftHand  -1.0737 -1.36054 18.5515
RightShoulder  0.804681 1.03299 10.5436
RightArm  12.412 -0.346481 56.2133
RightForeArm  100.494 70.6249 143.14
RightHand  -0.688521 0.661758 -13.2911
LeftUpLeg  -24.3381 -5.77653 15.1127
LeftLeg  24.2092 -3.08837 -1.18886
LeftFoot  6.98621 3.39582 -21.0856
LeftToes  -5.54824e-011 -8.71001e-011 8.3852e-012
426
root  -9.08759 37.5963 12.7002 175.984 33.0772 179.309
RightUpLeg  -4.12317 -2.10495 -6.4899
RightLeg  35.9 -4.80201 -4.00682
RightFoot  -20.9856 1.22674 16.1009
RightToes  2.32829e-010 0 -3.6325e-017
Spine  13.6024 1.9881 -2.94183
Spine1  23.6803 2.91617 -1.98317
HEad  -19.008 25.5161 -16.0686
LeftShoulder1  0.8118 -0.378883 -13.9581
LeftArm  15.9208 -0.691245 -56.7767
LeftForeArm  87.3487 -79.756 -90.6064
LeftHand  -1.05721 -1.11854 18.9139
RightShoulder  0.803149 1.01117 10.6016
RightArm  13.2573 -2.9765 56.9984
RightForeArm  101.483 69.5325 145.397
RightHand  -0.589947 0.305187 -12.0618
LeftUpLeg  -22.5531 -6.54968 14.7412
LeftLeg  20.1868 -3.00697 -0.8724
LeftFoot  7.82666 3.47389 -20.676
LeftToes  -5.54824e-011 -8.71001e-011 8.3852e-012
427
root  -9.28417 38.3955 12.5045 177.448 34.5859 179.323
RightUpLeg  -4.04594 -3.19692 -7.30906
RightLeg  30.9651 -3.25728 -2.36531
RightFoot  -15.4132 0.455625 15.8125
RightToes  2.32829e-010 0 -3.6325e-017
Spine  12.521 1.25779 -3.1718
Spine1  22.4102 1.81404 -1.48815
HEad  -18.758 27.5719 -16.5949
LeftShoulder1  0.819241 -0.424255 -13.8999
LeftArm  16.9276 1.04355 -57.9823
LeftForeArm  88.6276 -79.78 -91.324
LeftHand  -0.952513 -0.920033 17.5973
RightShoulder  0.781189 0.964823 10.257
RightArm  15.4626 -5.62834 57.7051
RightForeArm  103.252 68.355 147.624
RightHand  -0.423743 -0.447211 -9.93748
LeftUpLeg  -20.9405 -6.11587 13.0001
LeftLeg  18.036 -6.14395 -1.9349
LeftFoot  5.69524 3.50841 -23.3978
LeftToes  -5.54824e-011 -8.71001e-011 8.3852e-012
428
root  -9.48051 39.0492 12.2767 178.696 36.4886 179.04
RightUpLeg  -4.32591 -4.30664 -8.34948
RightLeg  26.9788 -2.04295 -1.3554
RightFoot  -10.3707 -0.223307 17.1948
RightToes  2.32829e-010 0 -3.6325e-017
Spine  11.7502 0.932636 -3.80593
Spine1  20.7641 1.07856 -0.865726
HEad  -18.428 29.2873 -16.8827
LeftShoulder1  0.832057 -0.511734 -13.7547
LeftArm  18.2498 2.86669 -59.0732
LeftForeArm  87.1439 -79.8081 -89.2528
LeftHand  -0.84975 -0.78355 16.0767
RightShoulder  0.753725 0.96814 9.55663
RightArm  17.9185 -8.35107 58.5014
RightForeArm  107.203 67.4586 149.384
RightHand  -0.317934 -0.85597 -8.1278
LeftUpLeg  -20.0074 -4.53756 10.3493
LeftLeg  19.6698 -7.93889 -2.81527
LeftFoot  3.57896 3.24027 -24.5376
LeftToes  -5.54824e-011 -8.71001e-011 8.3852e-012
429
root  -9.6672 39.4392 12.0522 179.841 38.7003 179.059
RightUpLeg  -4.76181 -5.3079 -8.851
RightLeg  24.1648 -3.04818 -1.71635
RightFoot  -6.82884 -0.823642 19.6035
RightToes  2.32829e-010 0 -3.6325e-017
Spine  11.1494 0.806256 -3.87114
Spine1  19.1992 0.912302 -0.835057
HEad  -18.1612 30.6451 -16.7708
LeftShoulder1  0.824908 -0.5703 -13.2291
LeftArm  19.646 4.30981 -60.0822
LeftForeArm  83.208 -79.6906 -87.7212
LeftHand  -0.785966 -0.640034 15.2297
RightShoulder  0.761045 1.18469 8.85561
RightArm  19.5888 -11.1506 59.3442
RightForeArm  111.879 66.8493 150.681
RightHand  -0.340264 -0.372359 -7.86296
LeftUpLeg  -19.6625 -3.07723 8.03524
LeftLeg  24.2393 -4.31095 -1.73323
LeftFoot  3.05589 2.6099 -20.623
LeftToes  -5.54824e-011 -8.71001e-011 8.3852e-012
